<?xml version="1.0" encoding="iso-8859-1"?>
<!-- Uploaded to: SVG Repo, www.svgrepo.com, Generator: SVG Repo Mixer Tools -->
<svg height="800px" width="800px" version="1.1" id="Layer_1" xmlns="http://www.w3.org/2000/svg" xmlns:xlink="http://www.w3.org/1999/xlink" 
	 viewBox="0 0 499.925 499.925" xml:space="preserve">
<path style="fill:#0CD3E2;" d="M149.276,370.337c-5.049,0-10.075-1.922-13.926-5.766c-7.696-7.688-7.696-20.157,0-27.845
	l201.35-201.358c7.696-7.696,20.157-7.696,27.845,0c7.696,7.688,7.696,20.157,0,27.845l-201.35,201.358
	C159.35,368.415,154.301,370.337,149.276,370.337z"/>
<circle style="fill:#185EC4;" cx="382.291" cy="117.638" r="61.015"/>
<path style="fill:#0CD3E2;" d="M382.283,198.353c-21.551,0-41.826-8.389-57.084-23.647c-31.445-31.46-31.445-82.66,0.016-114.137
	c15.25-15.258,35.517-23.654,57.076-23.654c21.559,0,41.834,8.397,57.068,23.662c31.453,31.476,31.453,82.676-0.008,114.129
	C424.101,189.964,403.826,198.353,382.283,198.353z M382.291,76.3c-11.036,0-21.417,4.301-29.231,12.115
	c-16.108,16.116-16.124,42.338-0.016,58.447c7.822,7.806,18.204,12.107,29.239,12.107c11.02,0,21.417-4.301,29.223-12.107
	c16.108-16.108,16.108-42.323-0.016-58.447C403.7,80.601,393.318,76.3,382.291,76.3z"/>
<circle style="fill:#185EC4;" cx="117.634" cy="382.295" r="61.015"/>
<path style="fill:#0CD3E2;" d="M117.634,463.009c-21.575,0-41.842-8.397-57.084-23.662c-31.453-31.46-31.453-82.66,0.016-114.129
	c15.25-15.258,35.509-23.647,57.076-23.647c21.559,0,41.819,8.397,57.06,23.654c15.25,15.234,23.647,35.501,23.647,57.06
	c0,21.551-8.389,41.834-23.647,57.068C159.46,454.605,139.193,463.009,117.634,463.009z M117.642,340.957
	c-11.043,0-21.433,4.301-29.231,12.107c-16.108,16.116-16.108,42.331,0,58.447c7.798,7.814,18.188,12.115,29.223,12.115
	c11.02,0,21.409-4.301,29.208-12.115c7.814-7.806,12.123-18.188,12.123-29.223s-4.309-21.409-12.123-29.216
	C139.043,345.257,128.677,340.957,117.642,340.957z"/>
<path style="fill:#0CD3E2;" d="M350.641,370.337c-5.033,0-10.075-1.922-13.926-5.766L135.349,163.206
	c-7.696-7.688-7.696-20.157,0-27.845c7.696-7.688,20.157-7.696,27.845,0l201.374,201.366c7.696,7.688,7.696,20.157,0,27.845
	C360.724,368.415,355.682,370.337,350.641,370.337z"/>
<circle style="fill:#185EC4;" cx="382.291" cy="382.295" r="61.015"/>
<path style="fill:#0CD3E2;" d="M382.275,463.002c-21.567,0-41.834-8.397-57.076-23.647c-15.242-15.25-23.631-35.517-23.631-57.068
	c0-21.559,8.397-41.826,23.647-57.06c15.25-15.258,35.525-23.647,57.076-23.647c21.559,0,41.834,8.389,57.06,23.647
	c15.25,15.234,23.647,35.501,23.647,57.06c0,21.551-8.397,41.834-23.647,57.068C424.101,454.597,403.826,463.002,382.275,463.002z
	 M382.291,340.964c-11.036,0-21.417,4.301-29.231,12.107c-7.806,7.806-12.107,18.188-12.107,29.216
	c0,11.036,4.301,21.417,12.091,29.223c7.814,7.806,18.188,12.107,29.231,12.107c11.028,0,21.425-4.301,29.231-12.107
	c7.798-7.806,12.107-18.188,12.107-29.223s-4.309-21.409-12.123-29.216C403.7,345.257,393.326,340.964,382.291,340.964z"/>
<path style="fill:#185EC4;" d="M74.508,160.819c-23.843-23.859-23.843-62.488-0.016-86.323c23.828-23.843,62.464-23.828,86.292,0
	c23.836,23.851,23.836,62.48,0,86.307C136.948,184.631,98.304,184.631,74.508,160.819z"/>
<path style="fill:#0CD3E2;" d="M117.626,198.368c-21.551,0-41.819-8.389-57.045-23.631c-31.476-31.484-31.476-82.7-0.032-114.168
	c15.25-15.25,35.509-23.647,57.076-23.647c21.551,0,41.834,8.389,57.076,23.647c31.46,31.492,31.46,82.7,0,114.152
	C159.46,189.972,139.185,198.368,117.626,198.368z M117.626,76.308c-11.036,0-21.417,4.301-29.231,12.107
	c-16.093,16.116-16.093,42.346,0.032,58.478c7.798,7.798,18.172,12.091,29.2,12.091s21.417-4.301,29.231-12.107
	c16.116-16.116,16.108-42.338-0.016-58.463C139.043,80.608,128.662,76.308,117.626,76.308z"/>
<path style="fill:#0CD3E2;" d="M19.692,269.662C8.814,269.662,0,260.848,0,249.97c0-10.878,8.814-19.692,19.692-19.692l460.54-0.016
	c10.878,0,19.692,8.814,19.692,19.692s-8.814,19.692-19.692,19.692L19.692,269.662z"/>
<path style="fill:#0CD3E2;" d="M249.966,499.921c-10.878,0-19.692-8.814-19.692-19.692l-0.016-460.532
	c0-10.878,8.814-19.692,19.692-19.692c10.878,0,19.692,8.814,19.692,19.692l0.016,460.54
	C269.659,491.106,260.844,499.921,249.966,499.921z"/>
<circle style="fill:#185EC4;" cx="249.958" cy="249.954" r="88.623"/>
<path style="fill:#0CD3E2;" d="M249.958,358.27c-59.723,0-108.316-48.593-108.316-108.316s48.593-108.308,108.316-108.308
	s108.316,48.585,108.316,108.308S309.681,358.27,249.958,358.27z M249.958,181.031c-38.006,0-68.931,30.917-68.931,68.923
	s30.925,68.931,68.931,68.931s68.931-30.925,68.931-68.931S287.965,181.031,249.958,181.031z"/>
</svg>